<svg width="33" height="30" viewBox="0 0 33 30" fill="none" xmlns="http://www.w3.org/2000/svg">
<g filter="url(#filter0_d_1_441)">
<path d="M8.94424 0.499954L24.056 0.499954C25.3228 0.499954 26.4565 1.15529 27.0888 2.25297C27.7211 3.35065 27.7192 4.66018 27.0836 5.75597L19.5277 18.7834C18.8944 19.8753 17.7625 20.5273 16.5002 20.5273C16.5001 20.5273 16.5002 20.5273 16.5001 20.5273C15.2377 20.5274 14.1059 19.8754 13.4725 18.7834L5.91664 5.75597C5.28108 4.66018 5.27912 3.35065 5.91141 2.25297C6.5437 1.15529 7.67747 0.499954 8.94424 0.499954Z" fill="#F2F2F2"/>
<path d="M16.5001 20.0273C17.5822 20.0273 18.5523 19.4685 19.0952 18.5325L26.6511 5.5051C27.1959 4.56585 27.1976 3.4434 26.6556 2.50253C26.1136 1.56166 25.1418 0.999941 24.056 0.999941L8.94424 0.999941C7.85844 0.999941 6.88664 1.56166 6.34468 2.50253C5.80272 3.44339 5.80439 4.56585 6.34915 5.5051L13.905 18.5325C14.4479 19.4685 15.4181 20.0273 16.5001 20.0273ZM16.5001 21.0273C15.1554 21.0273 13.8107 20.363 13.04 19.0342L5.48412 6.00682C3.93746 3.34016 5.86151 -4.95911e-05 8.94424 -5.91278e-05L24.056 -5.91278e-05C27.1388 -4.95911e-05 29.0628 3.34016 27.5161 6.00682L19.9603 19.0342C19.1896 20.363 17.8449 21.0273 16.5001 21.0273Z" fill="#707070"/>
</g>
<defs>
<filter id="filter0_d_1_441" x="0.938263" y="0" width="31.1237" height="29.0273" filterUnits="userSpaceOnUse" color-interpolation-filters="sRGB">
<feFlood flood-opacity="0" result="BackgroundImageFix"/>
<feColorMatrix in="SourceAlpha" type="matrix" values="0 0 0 0 0 0 0 0 0 0 0 0 0 0 0 0 0 0 127 0" result="hardAlpha"/>
<feOffset dy="4"/>
<feGaussianBlur stdDeviation="2"/>
<feComposite in2="hardAlpha" operator="out"/>
<feColorMatrix type="matrix" values="0 0 0 0 0 0 0 0 0 0 0 0 0 0 0 0 0 0 0.25 0"/>
<feBlend mode="normal" in2="BackgroundImageFix" result="effect1_dropShadow_1_441"/>
<feBlend mode="normal" in="SourceGraphic" in2="effect1_dropShadow_1_441" result="shape"/>
</filter>
</defs>
</svg>
